<?xml version="1.0" encoding="UTF-8"?>
<svg xmlns="http://www.w3.org/2000/svg" version="1.1" width="200" height="200" viewBox="0 0 200 200"><rect x="0" y="0" width="200" height="200" fill="#ffffff"/><g transform="scale(6.061)"><g transform="translate(0,0)"><path fill-rule="evenodd" d="M9 0L9 1L8 1L8 2L9 2L9 3L8 3L8 4L10 4L10 7L11 7L11 4L12 4L12 5L15 5L15 6L14 6L14 8L13 8L13 6L12 6L12 9L14 9L14 10L11 10L11 11L10 11L10 9L11 9L11 8L6 8L6 9L5 9L5 8L0 8L0 9L1 9L1 10L0 10L0 11L1 11L1 10L2 10L2 12L3 12L3 10L2 10L2 9L5 9L5 10L4 10L4 11L5 11L5 12L6 12L6 13L7 13L7 14L6 14L6 15L4 15L4 16L6 16L6 17L4 17L4 19L2 19L2 18L3 18L3 17L1 17L1 16L0 16L0 19L1 19L1 20L0 20L0 25L1 25L1 21L2 21L2 22L3 22L3 23L4 23L4 25L7 25L7 24L8 24L8 27L9 27L9 28L8 28L8 33L10 33L10 32L9 32L9 31L10 31L10 30L9 30L9 29L11 29L11 30L12 30L12 31L11 31L11 32L13 32L13 33L14 33L14 32L13 32L13 31L15 31L15 33L21 33L21 32L22 32L22 31L21 31L21 32L17 32L17 31L16 31L16 30L15 30L15 29L14 29L14 28L13 28L13 26L12 26L12 25L14 25L14 27L15 27L15 28L17 28L17 29L19 29L19 30L20 30L20 29L21 29L21 30L23 30L23 29L21 29L21 28L23 28L23 27L24 27L24 30L25 30L25 31L27 31L27 32L28 32L28 33L29 33L29 31L28 31L28 30L29 30L29 29L30 29L30 30L31 30L31 31L30 31L30 32L31 32L31 33L32 33L32 32L31 32L31 31L32 31L32 30L31 30L31 29L32 29L32 28L33 28L33 27L32 27L32 26L33 26L33 24L32 24L32 26L29 26L29 25L30 25L30 24L31 24L31 23L32 23L32 22L33 22L33 21L32 21L32 20L31 20L31 19L32 19L32 18L33 18L33 17L32 17L32 16L31 16L31 15L32 15L32 14L33 14L33 13L31 13L31 15L30 15L30 13L29 13L29 10L28 10L28 8L27 8L27 9L26 9L26 8L25 8L25 4L23 4L23 1L24 1L24 3L25 3L25 0L23 0L23 1L22 1L22 2L21 2L21 0L18 0L18 1L17 1L17 2L18 2L18 3L16 3L16 1L15 1L15 0L13 0L13 1L11 1L11 2L10 2L10 0ZM13 1L13 2L12 2L12 4L13 4L13 3L14 3L14 4L15 4L15 5L17 5L17 8L14 8L14 9L15 9L15 10L14 10L14 11L12 11L12 13L11 13L11 12L10 12L10 13L11 13L11 15L10 15L10 16L11 16L11 17L10 17L10 18L9 18L9 20L8 20L8 18L7 18L7 17L8 17L8 16L7 16L7 15L6 15L6 16L7 16L7 17L6 17L6 18L7 18L7 19L6 19L6 20L7 20L7 21L5 21L5 19L4 19L4 21L3 21L3 22L7 22L7 23L6 23L6 24L7 24L7 23L8 23L8 24L9 24L9 23L8 23L8 22L7 22L7 21L9 21L9 22L10 22L10 23L13 23L13 24L14 24L14 25L15 25L15 26L16 26L16 25L17 25L17 28L18 28L18 26L19 26L19 27L20 27L20 26L19 26L19 25L21 25L21 27L22 27L22 26L23 26L23 25L24 25L24 24L26 24L26 23L24 23L24 22L21 22L21 21L22 21L22 20L21 20L21 19L24 19L24 18L23 18L23 17L22 17L22 16L21 16L21 15L22 15L22 14L23 14L23 16L24 16L24 17L28 17L28 18L29 18L29 17L30 17L30 19L27 19L27 18L25 18L25 20L24 20L24 21L25 21L25 22L26 22L26 21L28 21L28 22L27 22L27 23L28 23L28 24L30 24L30 23L29 23L29 22L30 22L30 21L31 21L31 20L30 20L30 19L31 19L31 16L30 16L30 15L29 15L29 13L28 13L28 15L29 15L29 17L28 17L28 16L27 16L27 14L25 14L25 16L24 16L24 14L23 14L23 13L27 13L27 12L28 12L28 11L27 11L27 10L25 10L25 11L26 11L26 12L24 12L24 10L23 10L23 9L25 9L25 8L24 8L24 5L23 5L23 4L22 4L22 3L20 3L20 1L18 1L18 2L19 2L19 3L20 3L20 5L19 5L19 4L15 4L15 3L14 3L14 2L15 2L15 1ZM10 3L10 4L11 4L11 3ZM21 4L21 5L22 5L22 4ZM8 5L8 7L9 7L9 5ZM15 6L15 7L16 7L16 6ZM18 6L18 8L17 8L17 9L18 9L18 10L20 10L20 11L18 11L18 12L17 12L17 11L16 11L16 10L15 10L15 11L14 11L14 12L13 12L13 13L12 13L12 14L13 14L13 15L12 15L12 17L14 17L14 18L15 18L15 19L14 19L14 20L12 20L12 19L13 19L13 18L10 18L10 19L11 19L11 20L9 20L9 21L10 21L10 22L11 22L11 21L12 21L12 22L13 22L13 23L14 23L14 24L15 24L15 25L16 25L16 24L15 24L15 23L16 23L16 22L15 22L15 21L19 21L19 22L20 22L20 21L21 21L21 20L16 20L16 18L20 18L20 19L21 19L21 18L20 18L20 17L21 17L21 16L17 16L17 15L19 15L19 14L21 14L21 13L18 13L18 12L20 12L20 11L21 11L21 12L22 12L22 13L23 13L23 10L22 10L22 11L21 11L21 10L20 10L20 9L21 9L21 8L22 8L22 9L23 9L23 8L22 8L22 7L23 7L23 6L22 6L22 7L21 7L21 6L20 6L20 7L21 7L21 8L19 8L19 6ZM18 8L18 9L19 9L19 8ZM29 8L29 9L30 9L30 8ZM31 8L31 10L33 10L33 9L32 9L32 8ZM6 9L6 10L5 10L5 11L6 11L6 12L8 12L8 11L6 11L6 10L7 10L7 9ZM8 9L8 10L9 10L9 9ZM15 11L15 12L16 12L16 11ZM30 11L30 12L31 12L31 11ZM0 13L0 14L1 14L1 15L2 15L2 13ZM3 13L3 14L4 14L4 13ZM13 13L13 14L14 14L14 15L13 15L13 16L14 16L14 17L15 17L15 18L16 18L16 17L17 17L17 16L16 16L16 15L17 15L17 14L18 14L18 13ZM8 14L8 15L9 15L9 14ZM15 14L15 15L16 15L16 14ZM15 16L15 17L16 17L16 16ZM14 20L14 21L13 21L13 22L14 22L14 23L15 23L15 22L14 22L14 21L15 21L15 20ZM28 20L28 21L30 21L30 20ZM18 23L18 24L17 24L17 25L19 25L19 24L23 24L23 23ZM2 24L2 25L3 25L3 24ZM10 24L10 26L11 26L11 27L10 27L10 28L11 28L11 29L12 29L12 30L14 30L14 29L12 29L12 28L11 28L11 27L12 27L12 26L11 26L11 25L12 25L12 24ZM25 25L25 28L28 28L28 25ZM26 26L26 27L27 27L27 26ZM29 27L29 28L30 28L30 29L31 29L31 28L32 28L32 27L31 27L31 28L30 28L30 27ZM19 28L19 29L20 29L20 28ZM25 29L25 30L28 30L28 29ZM23 31L23 32L24 32L24 33L26 33L26 32L24 32L24 31ZM0 0L0 7L7 7L7 0ZM1 1L1 6L6 6L6 1ZM2 2L2 5L5 5L5 2ZM26 0L26 7L33 7L33 0ZM27 1L27 6L32 6L32 1ZM28 2L28 5L31 5L31 2ZM0 26L0 33L7 33L7 26ZM1 27L1 32L6 32L6 27ZM2 28L2 31L5 31L5 28Z" fill="#000000"/></g></g></svg>
