<?xml version="1.0" encoding="UTF-8"?>
<svg xmlns="http://www.w3.org/2000/svg" version="1.1" width="200" height="200" viewBox="0 0 200 200"><rect x="0" y="0" width="200" height="200" fill="#ffffff"/><g transform="scale(6.061)"><g transform="translate(0,0)"><path fill-rule="evenodd" d="M9 0L9 1L8 1L8 2L9 2L9 3L8 3L8 4L10 4L10 7L11 7L11 4L12 4L12 5L15 5L15 6L14 6L14 8L13 8L13 6L12 6L12 9L14 9L14 10L11 10L11 11L10 11L10 9L11 9L11 8L6 8L6 9L5 9L5 8L0 8L0 10L2 10L2 11L1 11L1 12L0 12L0 13L1 13L1 15L0 15L0 18L1 18L1 17L2 17L2 18L4 18L4 20L3 20L3 19L1 19L1 20L0 20L0 25L1 25L1 20L3 20L3 23L8 23L8 27L9 27L9 28L8 28L8 33L9 33L9 31L11 31L11 30L9 30L9 29L12 29L12 30L13 30L13 31L12 31L12 33L13 33L13 32L14 32L14 33L15 33L15 32L17 32L17 33L21 33L21 32L22 32L22 31L23 31L23 32L24 32L24 33L25 33L25 32L24 32L24 31L27 31L27 32L28 32L28 33L29 33L29 31L30 31L30 32L31 32L31 33L32 33L32 32L31 32L31 31L32 31L32 30L31 30L31 29L30 29L30 28L31 28L31 27L32 27L32 26L33 26L33 24L32 24L32 26L31 26L31 25L30 25L30 24L31 24L31 23L32 23L32 22L33 22L33 21L32 21L32 20L31 20L31 19L32 19L32 18L33 18L33 17L32 17L32 16L31 16L31 15L32 15L32 14L33 14L33 13L31 13L31 15L30 15L30 13L29 13L29 10L28 10L28 8L27 8L27 9L26 9L26 8L25 8L25 6L24 6L24 7L23 7L23 5L24 5L24 4L21 4L21 3L25 3L25 2L23 2L23 1L25 1L25 0L23 0L23 1L22 1L22 2L20 2L20 4L19 4L19 1L20 1L20 0L19 0L19 1L15 1L15 0L14 0L14 2L15 2L15 4L14 4L14 3L13 3L13 4L12 4L12 2L13 2L13 1L11 1L11 2L10 2L10 0ZM16 2L16 4L15 4L15 5L16 5L16 4L17 4L17 5L19 5L19 8L18 8L18 6L17 6L17 8L16 8L16 9L15 9L15 8L14 8L14 9L15 9L15 10L16 10L16 12L18 12L18 11L19 11L19 13L20 13L20 14L17 14L17 13L15 13L15 11L12 11L12 13L11 13L11 12L10 12L10 13L11 13L11 18L10 18L10 17L9 17L9 16L10 16L10 14L9 14L9 12L8 12L8 13L6 13L6 12L7 12L7 11L5 11L5 13L6 13L6 14L7 14L7 15L6 15L6 16L4 16L4 15L5 15L5 14L4 14L4 12L3 12L3 13L2 13L2 15L1 15L1 16L2 16L2 17L3 17L3 16L4 16L4 18L5 18L5 17L6 17L6 18L8 18L8 19L9 19L9 18L10 18L10 21L11 21L11 23L10 23L10 24L11 24L11 26L13 26L13 27L12 27L12 29L15 29L15 30L17 30L17 32L18 32L18 30L19 30L19 32L21 32L21 29L22 29L22 30L23 30L23 31L24 31L24 27L23 27L23 26L24 26L24 25L23 25L23 24L21 24L21 23L22 23L22 22L21 22L21 21L24 21L24 22L23 22L23 23L24 23L24 24L27 24L27 22L25 22L25 21L27 21L27 20L28 20L28 19L26 19L26 18L25 18L25 17L28 17L28 18L29 18L29 17L30 17L30 19L29 19L29 20L30 20L30 21L28 21L28 24L30 24L30 23L29 23L29 22L30 22L30 21L31 21L31 20L30 20L30 19L31 19L31 16L30 16L30 15L29 15L29 13L28 13L28 16L26 16L26 14L25 14L25 13L27 13L27 12L28 12L28 11L27 11L27 10L25 10L25 9L24 9L24 10L23 10L23 9L22 9L22 8L20 8L20 5L21 5L21 7L22 7L22 5L21 5L21 4L20 4L20 5L19 5L19 4L17 4L17 3L18 3L18 2ZM10 3L10 4L11 4L11 3ZM8 5L8 7L9 7L9 5ZM15 6L15 7L16 7L16 6ZM17 8L17 9L16 9L16 10L17 10L17 11L18 11L18 10L20 10L20 13L21 13L21 14L24 14L24 13L25 13L25 12L26 12L26 11L25 11L25 12L24 12L24 11L23 11L23 10L22 10L22 9L21 9L21 10L20 10L20 8L19 8L19 9L18 9L18 8ZM29 8L29 9L30 9L30 8ZM31 8L31 10L33 10L33 9L32 9L32 8ZM2 9L2 10L3 10L3 9ZM4 9L4 10L5 10L5 9ZM6 9L6 10L9 10L9 9ZM17 9L17 10L18 10L18 9ZM22 11L22 12L21 12L21 13L23 13L23 11ZM30 11L30 12L31 12L31 11ZM13 12L13 13L12 13L12 14L13 14L13 13L14 13L14 14L15 14L15 15L14 15L14 16L13 16L13 15L12 15L12 17L14 17L14 19L15 19L15 21L16 21L16 22L14 22L14 21L12 21L12 19L13 19L13 18L11 18L11 21L12 21L12 22L13 22L13 23L12 23L12 25L13 25L13 24L14 24L14 25L18 25L18 26L17 26L17 27L19 27L19 26L20 26L20 28L16 28L16 26L15 26L15 27L14 27L14 28L16 28L16 29L19 29L19 30L20 30L20 28L22 28L22 29L23 29L23 27L22 27L22 26L23 26L23 25L22 25L22 26L20 26L20 25L21 25L21 24L19 24L19 23L18 23L18 22L20 22L20 21L21 21L21 20L24 20L24 21L25 21L25 18L24 18L24 17L25 17L25 16L24 16L24 15L21 15L21 16L19 16L19 17L18 17L18 16L16 16L16 15L17 15L17 14L15 14L15 13L14 13L14 12ZM3 14L3 15L4 15L4 14ZM7 15L7 16L6 16L6 17L7 17L7 16L8 16L8 15ZM14 16L14 17L15 17L15 18L17 18L17 20L16 20L16 21L17 21L17 22L16 22L16 23L14 23L14 24L18 24L18 25L19 25L19 24L18 24L18 23L17 23L17 22L18 22L18 21L20 21L20 19L21 19L21 17L23 17L23 16L21 16L21 17L20 17L20 18L19 18L19 19L18 19L18 17L15 17L15 16ZM28 16L28 17L29 17L29 16ZM8 17L8 18L9 18L9 17ZM23 18L23 19L24 19L24 18ZM5 19L5 20L4 20L4 21L5 21L5 22L7 22L7 21L8 21L8 23L9 23L9 20L7 20L7 19ZM5 20L5 21L7 21L7 20ZM17 20L17 21L18 21L18 20ZM2 24L2 25L4 25L4 24ZM5 24L5 25L7 25L7 24ZM9 25L9 27L10 27L10 28L11 28L11 27L10 27L10 25ZM25 25L25 28L28 28L28 25ZM29 25L29 28L30 28L30 27L31 27L31 26L30 26L30 25ZM26 26L26 27L27 27L27 26ZM25 29L25 30L28 30L28 31L29 31L29 30L28 30L28 29ZM30 30L30 31L31 31L31 30ZM14 31L14 32L15 32L15 31ZM10 32L10 33L11 33L11 32ZM0 0L0 7L7 7L7 0ZM1 1L1 6L6 6L6 1ZM2 2L2 5L5 5L5 2ZM26 0L26 7L33 7L33 0ZM27 1L27 6L32 6L32 1ZM28 2L28 5L31 5L31 2ZM0 26L0 33L7 33L7 26ZM1 27L1 32L6 32L6 27ZM2 28L2 31L5 31L5 28Z" fill="#000000"/></g></g></svg>
